<?xml version="1.0" encoding="UTF-8"?>
<svg width="26.6669206px" height="26.6669206px" viewBox="0 0 26.6669206 26.6669206" version="1.1" xmlns="http://www.w3.org/2000/svg" xmlns:xlink="http://www.w3.org/1999/xlink">
    <title>Icon</title>
    <g id="Home" stroke="none" stroke-width="1" fill="none" fill-rule="evenodd">
        <g id="Main-Copy-9" transform="translate(-778.6667, -2812.6667)" fill="#6E6E6E">
            <g id="APIs-relacionadas--Copy" transform="translate(72, 2698)">
                <g id="Card-2" transform="translate(384, 96)">
                    <g id="Icon" transform="translate(320, 16)">
                        <g id="Icon/General/Seguros-|-Escudo-|-Seguridad" transform="translate(2.6667, 2.6667)">
                            <path d="M14.323663,12.9906978 L13.8704548,12.8243945 C13.4566009,12.6758641 13.0287825,12.5222558 12.696176,12.3292932 C12.2962864,12.077934 12.2277339,11.8392698 12.2455068,11.5104717 C12.2747051,10.9823636 12.8015437,10.5761266 13.4350195,10.6142113 C14.0608784,10.6484876 14.5458239,11.1080432 14.5077391,11.7224766 C14.4468036,12.0677781 14.6765814,12.3978457 15.0218828,12.4587812 C15.3671843,12.5222558 15.6972519,12.2886695 15.7569179,11.943368 C15.7708823,11.8671986 15.7797688,11.7872207 15.7848467,11.7059733 C15.8419738,10.6662604 15.1145557,9.75603563 14.0862682,9.45389686 L14.0849987,9.13779369 C14.0837293,8.78741427 13.7993634,8.50558735 13.4502534,8.50558735 L13.4477144,8.50558735 C13.097335,8.50812633 12.8142386,8.79249223 12.8155081,9.14414114 L12.8167776,9.41073418 C11.8126105,9.62908657 11.0344127,10.4352131 10.9785551,11.4419192 C10.9328535,12.282322 11.2832329,12.9424572 12.0385798,13.4147077 C12.489249,13.6787617 12.9957758,13.8602989 13.4426365,14.0202547 L13.8539514,14.1700546 C14.4049104,14.3947545 14.6499221,14.7210136 14.6042204,15.1653353 C14.5801001,15.40273 14.4391866,15.6198129 14.2068698,15.7772298 C13.9415463,15.9574975 13.6000533,16.0412838 13.239518,15.9993906 C12.8815216,15.9625754 12.56161,15.8153145 12.3381796,15.5842672 C12.1439475,15.3836877 12.0500052,15.1424845 12.075395,14.9050897 C12.1109408,14.5572493 11.8570427,14.2449546 11.5079327,14.2081393 C11.1524753,14.1713241 10.8477976,14.4264917 10.8109824,14.7756017 C10.7487773,15.3913046 10.9658602,15.9917737 11.4254158,16.4665632 C11.7910291,16.8448714 12.279783,17.0962306 12.8180471,17.2079457 L12.8193166,17.516432 C12.8205861,17.8655419 13.104952,18.1473688 13.4540619,18.1473688 L13.4566009,18.1473688 C13.8069803,18.1460993 14.0900767,17.8604639 14.0888072,17.5100845 L14.0875377,17.1812864 C14.385868,17.1063865 14.6702339,16.9972103 14.9203236,16.8270985 C15.4674741,16.4551378 15.8038891,15.9117958 15.8673636,15.2960928 C15.9714619,14.2754223 15.4141555,13.4375585 14.323663,12.9906978 M20.3220063,13.3271128 C20.3220063,9.47674769 17.1901729,6.34491426 13.3398077,6.34491426 C9.4894426,6.34491426 6.35760917,9.47674769 6.35760917,13.3271128 C6.35760917,17.177478 9.4894426,20.3093114 13.3398077,20.3093114 C17.1901729,20.3093114 20.3220063,17.177478 20.3220063,13.3271128 M21.591497,13.3271128 C21.591497,17.8769673 17.8896622,21.578802 13.3398077,21.578802 C8.78995325,21.578802 5.08811852,17.8769673 5.08811852,13.3271128 C5.08811852,8.77725834 8.78995325,5.07542361 13.3398077,5.07542361 C17.8896622,5.07542361 21.591497,8.77725834 21.591497,13.3271128 M1.26949065,13.3334603 C1.26949065,6.68132928 6.68132928,1.26949065 13.3334603,1.26949065 C16.0692126,1.26949065 18.6538956,2.18098493 20.766328,3.84401768 L19.4282849,3.84401768 C19.076636,3.84401768 18.7935396,4.12838359 18.7935396,4.47876301 C18.7935396,4.83041192 19.076636,5.11350833 19.4282849,5.11350833 L22.4230133,5.11350833 C22.7746622,5.11350833 23.0577587,4.83041192 23.0577587,4.47876301 L23.0577587,1.48403457 C23.0577587,1.13238566 22.7746622,0.849289244 22.4230133,0.849289244 C22.0726339,0.849289244 21.788268,1.13238566 21.788268,1.48403457 L21.788268,3.0277352 C19.4117815,1.06891113 16.4589463,-8.8817842e-16 13.3334603,-8.8817842e-16 C5.98183994,-8.8817842e-16 -8.8817842e-16,5.98183994 -8.8817842e-16,13.3334603 C-8.8817842e-16,15.2123064 0.383386176,17.0289476 1.1400026,18.735143 C1.24410084,18.9712683 1.47641762,19.1121817 1.72015983,19.1121817 C1.80648519,19.1121817 1.89281056,19.0956783 1.97659694,19.0575936 C2.29777807,18.9154107 2.44250001,18.5409109 2.30031706,18.2209993 C1.6160616,16.6772987 1.26949065,15.0333083 1.26949065,13.3334603 M26.6669206,13.3334603 C26.6669206,20.6863501 20.6863501,26.6669206 13.3334603,26.6669206 C10.2409811,26.6669206 7.31226614,25.6183213 4.94466608,23.695043 L4.94466608,25.2603249 C4.94466608,25.6107043 4.66156966,25.8950703 4.30992075,25.8950703 C3.95954133,25.8950703 3.67517543,25.6107043 3.67517543,25.2603249 L3.67517543,22.264327 C3.67517543,21.9139476 3.95954133,21.6295817 4.30992075,21.6295817 L7.30591868,21.6295817 C7.6562981,21.6295817 7.94066401,21.9139476 7.94066401,22.264327 C7.94066401,22.6159759 7.6562981,22.8990723 7.30591868,22.8990723 L6.0008823,22.8990723 C8.09681136,24.5125949 10.6446791,25.3974299 13.3334603,25.3974299 C19.9855913,25.3974299 25.3974299,19.9855913 25.3974299,13.3334603 C25.3974299,11.6463072 25.0559369,10.0150117 24.3831069,8.484006 C24.2421934,8.16282487 24.3881849,7.78832513 24.709366,7.64868116 C25.0318166,7.5077677 25.4050469,7.65248963 25.5446908,7.97367076 C26.2898818,9.6659018 26.6669206,11.469848 26.6669206,13.3334603" id="icon-color"></path>
                        </g>
                    </g>
                </g>
            </g>
        </g>
    </g>
</svg>