<?xml version="1.0" encoding="UTF-8"?>
<svg width="26.6666667px" height="25.3333333px" viewBox="0 0 26.6666667 25.3333333" version="1.1" xmlns="http://www.w3.org/2000/svg" xmlns:xlink="http://www.w3.org/1999/xlink">
    <title>Icon</title>
    <g id="Home" stroke="none" stroke-width="1" fill="none" fill-rule="evenodd">
        <g id="Main-Copy-9" transform="translate(-1162.6667, -2814)" fill="#6E6E6E">
            <g id="APIs-relacionadas--Copy" transform="translate(72, 2698)">
                <g id="Card-3" transform="translate(768, 96)">
                    <g id="Icon" transform="translate(320, 16)">
                        <g id="Icon/General/Seguros-|-Escudo-|-Seguridad" transform="translate(2.6667, 4)">
                            <path d="M1.33801639,24.0010693 L24.084295,24.0010693 L24.084295,22.6688053 L1.33801639,22.6688053 L1.33801639,24.0010693 Z M8.03746446,19.3274871 L8.03746446,21.3365413 L16.0107041,21.3365413 C13.6062887,20.1295101 11.9484864,17.6541635 11.9484864,14.795125 C11.9484864,11.7149306 13.8698779,9.07838007 16.5793611,7.99524943 L6.67134972,7.99524943 L6.67134972,18.6613551 L7.36845626,18.6613551 C7.73774879,18.6613551 8.03746446,18.9597823 8.03746446,19.3274871 L8.03746446,19.3274871 Z M2.6853989,21.3258832 L6.69944807,21.3258832 L6.69944807,19.9936192 L2.6853989,19.9936192 L2.6853989,21.3258832 Z M3.99531694,18.6387067 L5.33333333,18.6387067 L5.33333333,7.99658169 L3.99531694,7.99658169 L3.99531694,18.6387067 Z M3.11088811,6.66298541 L3.2487038,6.66298541 C3.27546412,6.66032088 3.2982104,6.64833051 3.32630875,6.64833051 L6.00234153,6.64833051 C6.03043987,6.64833051 6.05318615,6.66032088 6.07994648,6.66298541 L22.3114233,6.66298541 L13.7561465,1.61770158 C13.1125606,1.23534181 12.3097508,1.23534181 11.6661649,1.61770158 L3.11088811,6.66298541 Z M19.3075765,8.79993689 C15.9866198,8.79993689 13.2865028,11.4884457 13.2865028,14.795125 C13.2865028,18.100472 15.9866198,20.790313 19.3075765,20.790313 C22.6271952,20.790313 25.3286503,18.100472 25.3286503,14.795125 C25.3286503,11.4884457 22.6271952,8.79993689 19.3075765,8.79993689 L19.3075765,8.79993689 Z M25.4223114,22.0026733 L25.4223114,24.6672013 C25.4223114,25.0349062 25.1239338,25.3333333 24.7533032,25.3333333 L0.669008195,25.3333333 C0.299715672,25.3333333 4.4408921e-16,25.0349062 4.4408921e-16,24.6672013 L4.4408921e-16,22.0026733 C4.4408921e-16,21.6349684 0.299715672,21.3365413 0.669008195,21.3365413 L1.34738251,21.3365413 L1.34738251,19.3274871 C1.34738251,18.9597823 1.64576016,18.6613551 2.0163907,18.6613551 L2.65730055,18.6613551 L2.65730055,7.99524943 L0.669008195,7.99524943 C0.367954507,7.99524943 0.103027262,7.79540982 0.024084295,7.50497627 C-0.0561966884,7.21587498 0.0695768523,6.90945425 0.327814016,6.75624389 L10.9837766,0.470622264 C12.0501756,-0.156874088 13.3721358,-0.156874088 14.4385349,0.470622264 L25.0944974,6.75624389 C25.3540726,6.90945425 25.4785081,7.21587498 25.3995651,7.50497627 C25.3192842,7.79540982 25.0543569,7.99524943 24.7533032,7.99524943 L22.0357919,7.99524943 C24.7452751,9.07838007 26.6666667,11.7149306 26.6666667,14.795125 C26.6666667,17.6541635 25.0088644,20.1295101 22.6044489,21.3365413 L24.7533032,21.3365413 C25.1239338,21.3365413 25.4223114,21.6349684 25.4223114,22.0026733 L25.4223114,22.0026733 Z M19.4132798,10.1322009 C19.7798963,10.1322009 20.079612,10.4279635 20.082288,10.7943361 L20.083626,11.0554599 C20.4984111,11.1860217 20.8784078,11.4111744 21.1634053,11.7282532 C21.547416,12.1559099 21.7427663,12.6968091 21.710654,13.251031 C21.7079779,13.3243055 21.6986118,13.4029091 21.6865697,13.4788481 C21.6250209,13.8412239 21.2784747,14.0916896 20.9172102,14.0264086 C20.5519318,13.9664567 20.3057367,13.6227326 20.3659475,13.2590246 C20.3900318,12.923294 20.2696103,12.7327803 20.166583,12.6168733 C19.9805988,12.4103724 19.6982773,12.282475 19.3945476,12.2651556 C19.1149022,12.2558298 18.8339187,12.3331011 18.6265262,12.4983018 C18.4392039,12.6488476 18.3308246,12.8500195 18.3187824,13.064514 C18.3013882,13.3629411 18.3615989,13.5667775 18.7215253,13.7905979 C19.0332832,13.9717858 19.4400401,14.1170026 19.833417,14.2582226 L20.2722863,14.4194265 C21.3453755,14.8564091 21.8939622,15.678416 21.7895969,16.6816108 C21.7280482,17.2771328 21.388192,17.8260256 20.8569995,18.1870692 C20.6241846,18.3442763 20.3605954,18.4521897 20.083626,18.5254642 L20.084964,18.7879202 C20.0876401,19.1556251 19.7892624,19.4567168 19.4199699,19.458049 L19.4159558,19.458049 C19.0493394,19.458049 18.7496237,19.1609541 18.7469477,18.7959138 L18.7469477,18.549445 C18.2371634,18.4362025 17.7755478,18.1923982 17.4290015,17.8353515 C16.982104,17.3743881 16.7613313,16.768208 16.8228801,16.172686 C16.8603445,15.8076456 17.1854825,15.5385283 17.5561131,15.5784962 C17.9240676,15.6157996 18.1916708,15.9422043 18.1542064,16.3085769 C18.12477,16.5896846 18.289346,16.8055114 18.3896973,16.909428 C18.5917377,17.1159289 18.8927914,17.2544843 19.2179294,17.2877909 C19.5457434,17.3210975 19.8655294,17.247823 20.1050343,17.0852868 C20.2241177,17.0026864 20.4301723,16.8254953 20.4582706,16.5443876 C20.4743268,16.3991708 20.5198194,15.9581915 19.7772203,15.6557675 L19.3811674,15.511883 C18.9516642,15.3586726 18.4659642,15.1841461 18.0284328,14.9296836 C17.2831577,14.4660558 16.9366115,13.8172432 16.983442,12.9912395 C17.0155544,12.3943852 17.3005519,11.8508215 17.7875899,11.4618004 C18.0672353,11.2366478 18.3937113,11.0900987 18.7442716,11.0074984 L18.7442716,10.8023297 C18.7415956,10.4319603 19.0894798,10.13753 19.4132798,10.1322009 L19.4132798,10.1322009 Z" id="icon-color"></path>
                        </g>
                    </g>
                </g>
            </g>
        </g>
    </g>
</svg>