<?xml version="1.0" encoding="UTF-8"?>
<svg width="5.40367734px" height="7.99998667px" viewBox="0 0 5.40367734 7.99998667" version="1.1" xmlns="http://www.w3.org/2000/svg" xmlns:xlink="http://www.w3.org/1999/xlink">
    <title>leimotive</title>
    <g id="Home" stroke="none" stroke-width="1" fill="none" fill-rule="evenodd">
        <g id="Main-Copy-10" transform="translate(-213.2983, -1016)" fill="#E1111C">
            <g id="Soluciones-" transform="translate(168, 760)">
                <g id="Items" transform="translate(40, 104)">
                    <g id="bullets" transform="translate(0, 144)">
                        <g id="leimotive" transform="translate(0, 4)">
                            <g id="Icon/Davivienda/Leimotiv" transform="translate(5.2983, 4)">
                                <path d="M6.14349867,6.68704569 C5.83377597,6.75368049 5.52128127,6.5865995 5.40468534,6.29202569 C4.82924534,5.01677902 3.38824534,2.63459235 2.69329867,2.63459235 C1.99843867,2.63459235 0.589092004,4.98021235 -0.00343466283,6.29202569 C-0.119563141,6.58699599 -0.432412165,6.75427547 -0.742207996,6.68704569 C-1.06239162,6.61915881 -1.29308619,6.3388878 -1.29815466,6.01162569 C-1.29688437,5.90376786 -1.27278207,5.79740236 -1.22743466,5.69953235 C-1.207948,5.65563235 0.859765337,1.25943235 2.69573867,1.29841235 C4.54152534,1.25943235 6.61163867,5.65563235 6.63116534,5.69953235 C6.67649608,5.79740581 6.70058025,5.90377151 6.701832,6.01162569 C6.69569821,6.33930865 6.4641779,6.61938049 6.14349867,6.68704569 Z" id="leimotiv" transform="translate(2.7018, 4) rotate(-270) translate(-2.7018, -4)"></path>
                            </g>
                        </g>
                    </g>
                </g>
            </g>
        </g>
    </g>
</svg>