<?xml version="1.0" encoding="UTF-8"?>
<svg width="592.930363px" height="634.11875px" viewBox="0 0 592.930363 634.11875" version="1.1" xmlns="http://www.w3.org/2000/svg" xmlns:xlink="http://www.w3.org/1999/xlink">
    <title>Mask Copy 10</title>
    <g id="Home" stroke="none" stroke-width="1" fill="none" fill-rule="evenodd" opacity="0.8">
        <g id="Main-Copy-10" transform="translate(-686.0696, -1956)" fill="#F4F6F7">
            <g id="Mask-Copy-12" transform="translate(-1, 1956)">
                <path d="M1629.20657,-195.260831 C1676.32272,-146.646181 1701.42921,-94.7038916 1697.74866,-39.8470167 L1697.81656,-40.9603717 L1697.80691,-40.5222464 C1696.24941,10.6729708 1669.80355,63.4315815 1623.2388,119.040656 L1621.80707,120.743866 C1582.59979,167.206324 1529.16344,215.743381 1464.30501,265.457996 C1361.98165,343.889842 1232.10753,423.728361 1134.79857,472.853467 C1100.97518,489.88178 1061.50467,497.064119 1026.40228,490.044989 C980.154321,480.797173 946.017855,448.094638 935.000789,397.658622 L934.986233,397.591756 C881.451493,150.833568 894.972959,-70.1081853 963.261272,-304.199132 C974.908529,-344.06674 990.896094,-376.49516 1015.588,-401.187534 C1050.11243,-435.71262 1096.83352,-448.559387 1150.74465,-435.2319 C1243.34214,-412.32866 1374.00967,-362.473903 1475.28787,-306.632123 C1539.07737,-271.460494 1591.37002,-234.300745 1629.20657,-195.260831 Z M1567.53447,-31.9178839 C1570.49091,-75.9856186 1514.51589,-133.743806 1411.79168,-190.385874 C1327.36462,-236.938903 1216.6469,-279.184337 1140.30479,-298.068026 C1121.16002,-302.801116 1110.27669,-299.807328 1100.74797,-290.279062 C1090.80849,-280.338892 1082.32038,-263.121093 1075.5511,-239.949097 C1017.85785,-42.1666525 1006.55811,142.486607 1051.56708,349.955752 L1051.56159,349.925607 L1051.6972,350.536069 C1054.86637,362.420898 1066.67005,367.509398 1069.19701,368.068275 C1069.69579,368.178587 1070.20554,368.325076 1070.73814,368.438987 L1071.20751,368.53606 C1082.29982,370.754228 1093.4072,365.65764 1107.58413,358.51998 C1190.66923,316.57355 1303.19631,247.395524 1390.91885,180.151999 C1501.72947,95.2103605 1566.45369,18.5051977 1567.44599,-29.8964853 L1567.46674,-30.908228 L1567.53447,-31.9178839 Z" id="Mask-Copy-10" transform="translate(1300.1034, 26.1592) rotate(-48) translate(-1300.1034, -26.1592)"></path>
            </g>
        </g>
    </g>
</svg>