<?xml version="1.0" encoding="UTF-8"?>
<svg width="547.419826px" height="434.495304px" viewBox="0 0 547.419826 434.495304" version="1.1" xmlns="http://www.w3.org/2000/svg" xmlns:xlink="http://www.w3.org/1999/xlink">
    <title>Mask Copy 8</title>
    <defs>
        <linearGradient x1="78.1974966%" y1="24.1891686%" x2="78.1974966%" y2="69.5512912%" id="linearGradient-1">
            <stop stop-color="#646C7B" stop-opacity="0" offset="0%"></stop>
            <stop stop-color="#4B525F" stop-opacity="0.161139642" offset="53.3155871%"></stop>
            <stop stop-color="#414753" stop-opacity="0.625792177" offset="100%"></stop>
        </linearGradient>
    </defs>
    <g id="Home" stroke="none" stroke-width="1" fill="none" fill-rule="evenodd">
        <g id="Main-Copy-6" transform="translate(-732.5802, -131)" fill="url(#linearGradient-1)">
            <g id="Shape-" transform="translate(0, 131)">
                <path d="M1484.62215,-220.727146 C1522.26772,-181.884285 1542.32767,-140.382656 1539.38694,-96.552289 L1539.44118,-97.441854 L1539.43347,-97.0917941 C1538.18904,-56.1870728 1517.05893,-14.033208 1479.85393,30.3981629 L1478.70999,31.7590194 C1447.38357,68.8822897 1404.68819,107.663154 1352.86663,147.384882 C1271.11078,210.051533 1167.34201,273.842108 1089.59264,313.092821 C1062.56792,326.698358 1031.03118,332.43701 1002.98455,326.828761 C966.032663,319.439802 938.757798,293.310641 929.955218,253.012518 L929.943588,252.959092 C887.169599,55.8005398 897.973182,-120.730811 952.535201,-307.7683 C961.841302,-339.622319 974.615286,-365.532464 994.343995,-385.261547 C1021.92884,-412.846917 1059.25875,-423.111419 1102.33348,-412.462824 C1176.3184,-394.16325 1280.72111,-354.32955 1361.64188,-309.712248 C1412.60937,-281.610293 1454.39094,-251.91984 1484.62215,-220.727146 Z M1435.34645,-90.2169517 C1437.70863,-125.42685 1392.98487,-171.575351 1310.90874,-216.832079 C1243.45194,-254.027716 1154.98904,-287.781605 1093.99208,-302.869578 C1078.69551,-306.651293 1069.99978,-304.259271 1062.38638,-296.646235 C1054.44479,-288.704089 1047.66283,-274.947154 1042.25421,-256.432846 C996.15759,-98.4056663 987.129158,49.1313598 1023.09109,214.898164 L1023.08671,214.874079 L1023.19507,215.361835 C1025.72722,224.857753 1035.1583,228.92344 1037.17733,229.369979 C1037.57584,229.458118 1037.98314,229.575162 1038.40868,229.666176 L1038.7837,229.743737 C1047.6464,231.516042 1056.52114,227.443894 1067.84844,221.740939 C1134.23302,188.225953 1224.14159,132.953057 1294.23146,79.2258189 C1382.76858,11.3578767 1434.48291,-49.9291629 1435.27576,-88.6018644 L1435.29233,-89.4102417 L1435.34645,-90.2169517 Z" id="Mask-Copy-8" transform="translate(1221.6704, -43.8136) rotate(127) translate(-1221.6704, 43.8136)"></path>
            </g>
        </g>
    </g>
</svg>