<?xml version="1.0" encoding="UTF-8"?>
<svg width="534.587362px" height="465px" viewBox="0 0 534.587362 465" version="1.1" xmlns="http://www.w3.org/2000/svg" xmlns:xlink="http://www.w3.org/1999/xlink">
    <title>Mask Copy 10</title>
    <defs>
        <linearGradient x1="38.9757496%" y1="9.44545067%" x2="76.3450628%" y2="32.308738%" id="linearGradient-1">
            <stop stop-color="#3F4857" stop-opacity="0.489783654" offset="0%"></stop>
            <stop stop-color="#21262E" offset="100%"></stop>
        </linearGradient>
    </defs>
    <g id="Home" stroke="none" stroke-width="1" fill="none" fill-rule="evenodd" opacity="0.0375511533">
        <g id="Main-Copy-5" transform="translate(0, -134)" fill="url(#linearGradient-1)">
            <g id="Shape-" transform="translate(-3, 134)">
                <path d="M363.795863,317.15709 C415.884071,370.901929 443.639986,428.325566 439.571041,488.971357 L439.646101,487.740513 L439.635429,488.224872 C437.913574,544.8226 408.676945,603.148702 357.198331,664.626071 L355.615513,666.509017 C312.270783,717.874548 253.195419,771.533606 181.492631,826.494488 C68.3713303,913.203061 -75.2080993,1001.46675 -182.785846,1055.77591 C-220.17854,1074.60118 -263.81428,1082.54146 -302.620939,1074.78162 C-353.749338,1064.5579 -391.488144,1028.40434 -403.667815,972.645933 L-403.683907,972.572011 C-462.868042,699.774014 -447.919688,455.516799 -372.425071,196.722788 C-359.548705,152.648045 -341.874011,116.79753 -314.576425,89.4994284 C-276.408711,51.3309917 -224.757263,37.1285356 -165.157012,51.8624418 C-62.7879343,77.182606 81.6686344,132.298418 193.63448,194.033049 C264.155535,232.916257 321.966515,273.997387 363.795863,317.15709 Z M295.615655,497.737233 C298.884075,449.019134 237.002147,385.165862 123.437689,322.54649 C30.1012396,271.080829 -92.3002556,224.377335 -176.698573,203.500895 C-197.863638,198.268334 -209.895462,201.578049 -220.429728,212.11181 C-231.418095,223.100942 -240.801934,242.135695 -248.285564,267.752977 C-312.067049,486.406936 -324.559219,690.546217 -274.800564,919.909092 L-274.806625,919.875766 L-274.656704,920.550648 C-271.153102,933.689655 -258.103803,939.315133 -255.310182,939.932987 C-254.758773,940.054939 -254.195222,940.216887 -253.606422,940.342819 L-253.087523,940.450135 C-240.824665,942.902381 -228.545149,937.267963 -212.872157,929.377082 C-121.019285,883.004145 3.38251418,806.525925 100.362206,732.18635 C222.866403,638.281021 294.420815,553.481343 295.51784,499.971945 L295.540771,498.853435 L295.615655,497.737233 Z" id="Mask-Copy-10" transform="translate(-0.0368, 561.9431) rotate(-12) translate(0.0368, -561.9431)"></path>
            </g>
        </g>
    </g>
</svg>