<?xml version="1.0" encoding="UTF-8"?>
<svg width="503.801612px" height="380.686608px" viewBox="0 0 503.801612 380.686608" version="1.1" xmlns="http://www.w3.org/2000/svg" xmlns:xlink="http://www.w3.org/1999/xlink">
    <title>Mask Copy 10</title>
    <defs>
        <linearGradient x1="38.9757496%" y1="9.44545067%" x2="76.3450628%" y2="32.308738%" id="linearGradient-1">
            <stop stop-color="#3F4857" stop-opacity="0.489783654" offset="0%"></stop>
            <stop stop-color="#21262E" offset="100%"></stop>
        </linearGradient>
    </defs>
    <g id="Home" stroke="none" stroke-width="1" fill="none" fill-rule="evenodd">
        <g id="Main-Copy-6" transform="translate(0, -131)" fill="url(#linearGradient-1)">
            <g id="Shape-" transform="translate(0, 131)">
                <path d="M300.250867,-236.002146 C338.221909,-196.82346 358.455298,-154.96302 355.489136,-110.753707 L355.543853,-111.650963 L355.536074,-111.297876 C354.280883,-70.0395038 332.968089,-27.521188 295.441426,17.2943245 L294.287589,18.6669466 C262.690331,56.1111747 219.625822,95.2273281 167.356227,135.29248 C84.8935384,198.500929 -19.772388,262.84302 -98.1939592,302.433085 C-125.452327,316.156251 -157.261725,321.944518 -185.55084,316.287781 C-222.822204,308.83494 -250.33288,282.479873 -259.211564,241.833343 L-259.223295,241.779456 C-302.367096,42.9163235 -291.470108,-135.141269 -236.436361,-323.795835 C-227.049802,-355.925255 -214.165378,-382.059412 -194.2661,-401.959067 C-166.442761,-429.782933 -128.790106,-440.136179 -85.3429667,-429.395518 C-10.7183885,-410.937732 94.586951,-370.75964 176.20734,-325.756589 C227.615481,-297.411672 269.758285,-267.464524 300.250867,-236.002146 Z M250.549147,-104.363596 C252.931746,-139.87791 207.821319,-186.425398 125.03558,-232.073404 C56.9955693,-269.590624 -32.2321559,-303.63634 -93.756485,-318.854759 C-109.185305,-322.66917 -117.956213,-320.256467 -125.635438,-312.577611 C-133.645691,-304.566799 -140.486283,-290.690926 -145.941668,-272.016548 C-192.436825,-112.623108 -201.543314,36.1894836 -165.27046,203.389463 L-165.274878,203.365169 L-165.16559,203.857142 C-162.611548,213.43516 -153.098926,217.535997 -151.062444,217.986398 C-150.66048,218.075298 -150.249665,218.193354 -149.820444,218.285155 L-149.44218,218.363387 C-140.502853,220.151014 -131.551383,216.04366 -120.126151,210.291399 C-53.1676324,176.486651 37.5182656,120.735881 108.214112,66.5441313 C197.516704,-1.91057886 249.678137,-63.7274897 250.477842,-102.734545 L250.494558,-103.549911 L250.549147,-104.363596 Z" id="Mask-Copy-10" transform="translate(35.0257, -57.5591) rotate(112) translate(-35.0257, 57.5591)"></path>
            </g>
        </g>
    </g>
</svg>