<?xml version="1.0" encoding="UTF-8"?>
<svg width="465.992717px" height="641.029181px" viewBox="0 0 465.992717 641.029181" version="1.1" xmlns="http://www.w3.org/2000/svg" xmlns:xlink="http://www.w3.org/1999/xlink">
    <title>Mask Copy 11</title>
    <defs>
        <linearGradient x1="38.9757148%" y1="9.44545067%" x2="76.345146%" y2="32.308738%" id="linearGradient-1">
            <stop stop-color="#3F4857" stop-opacity="0.489783654" offset="0%"></stop>
            <stop stop-color="#21262E" offset="100%"></stop>
        </linearGradient>
    </defs>
    <g id="Home" stroke="none" stroke-width="1" fill="none" fill-rule="evenodd" opacity="0.112606957">
        <g id="Main-Copy-5" transform="translate(-814.0073, 0)" fill="url(#linearGradient-1)">
            <path d="M1907.61228,-224.766415 C1970.27469,-160.111167 2003.66521,-91.0303099 1998.77024,-18.0731857 L1998.86054,-19.5538967 L1998.8477,-18.9712101 C1996.7763,49.1160773 1961.60446,119.282608 1899.67538,193.240126 L1897.77124,195.505318 C1845.62728,257.298255 1774.55927,321.850315 1688.3004,387.968475 C1552.21481,492.279235 1379.48792,598.460806 1250.07126,663.794949 C1205.08763,686.441825 1152.59359,695.994009 1105.90895,686.658891 C1044.40119,674.359724 999.00119,630.866857 984.348979,563.789273 L984.32962,563.700345 C913.130781,235.523293 931.113753,-58.3190912 1021.93423,-369.649302 C1037.42458,-422.671391 1058.68734,-465.799702 1091.5265,-498.639427 C1137.44248,-544.556208 1199.57947,-561.641821 1271.27892,-543.916879 C1394.42951,-513.456629 1568.2116,-447.152101 1702.90715,-372.885106 C1787.74439,-326.108459 1857.29133,-276.687704 1907.61228,-224.766415 Z M1825.59104,-7.52885466 C1829.52297,-66.1370098 1755.07865,-142.952866 1618.45995,-218.284334 C1506.17566,-280.197822 1358.92595,-336.382397 1257.39429,-361.496875 C1231.93259,-367.791677 1217.45824,-363.810071 1204.78545,-351.137895 C1191.56638,-337.917905 1180.27757,-315.018987 1171.27472,-284.201249 C1094.54522,-21.1592676 1079.51707,224.421472 1139.37702,500.34634 L1139.36973,500.306248 L1139.55009,501.118136 C1143.76494,516.924437 1159.46332,523.69192 1162.82406,524.435201 C1163.48741,524.581911 1164.16537,524.776735 1164.8737,524.928232 L1165.49794,525.057334 C1180.25023,528.007401 1195.02255,521.229162 1213.87725,511.736387 C1324.37679,455.949474 1474.03288,363.945732 1590.70001,274.514792 C1738.07327,161.546137 1824.15364,59.5316333 1825.47337,-4.84048306 L1825.50096,-6.18605655 L1825.59104,-7.52885466 Z" id="Mask-Copy-11" transform="translate(1469.9195, 69.7121) rotate(-86) translate(-1469.9195, -69.7121)"></path>
        </g>
    </g>
</svg>