<?xml version="1.0" encoding="UTF-8"?>
<svg width="761.137132px" height="660px" viewBox="0 0 761.137132 660" version="1.1" xmlns="http://www.w3.org/2000/svg" xmlns:xlink="http://www.w3.org/1999/xlink">
    <title>Mask Copy 12</title>
    <g id="Home" stroke="none" stroke-width="1" fill="none" fill-rule="evenodd" opacity="0.8">
        <g id="Main-Copy-10" transform="translate(0, -1956)" fill="#F4F6F7">
            <g id="Mask-Copy-12" transform="translate(-1, 1956)">
                <path d="M478.206571,293.739169 C525.322722,342.353819 550.429209,394.296108 546.748664,449.152983 L546.816559,448.039628 L546.806905,448.477754 C545.249409,499.672971 518.803549,552.431582 472.238803,608.040656 L470.807072,609.743866 C431.599793,656.206324 378.163442,704.743381 313.305011,754.457996 C210.981652,832.889842 81.107532,912.728361 -16.2014294,961.853467 C-50.0248209,978.88178 -89.4953313,986.064119 -124.597719,979.044989 C-170.845679,969.797173 -204.982145,937.094638 -215.999211,886.658622 L-216.013767,886.591756 C-269.548507,639.833568 -256.027041,418.891815 -187.738728,184.800868 C-176.091471,144.93326 -160.103906,112.50484 -135.411999,87.8124656 C-100.887567,53.2873797 -54.1664846,40.4406126 -0.255348277,53.7681004 C92.3421358,76.6713399 223.009668,126.526097 324.287865,182.367877 C388.077365,217.539506 440.370024,254.699255 478.206571,293.739169 Z M416.534473,457.082116 C419.490908,413.014381 363.515891,355.256194 260.791677,298.614126 C176.364616,252.061097 65.6468997,209.815663 -10.6952147,190.931974 C-29.8399784,186.198884 -40.7233094,189.192672 -50.2520325,198.720938 C-60.1915099,208.661108 -68.6796187,225.878907 -75.4489023,249.050903 C-133.142154,446.833347 -144.44189,631.486607 -99.4329247,838.955752 L-99.4384067,838.925607 L-99.3027969,839.536069 C-96.1336292,851.420898 -84.3299453,856.509398 -81.802988,857.068275 C-81.3042138,857.178587 -80.7944558,857.325076 -80.2618602,857.438987 L-79.7924926,857.53606 C-68.7001795,859.754228 -57.5927996,854.65764 -43.4158655,847.51998 C39.6692325,805.57355 152.196314,736.395524 239.918854,669.151999 C350.729468,584.21036 415.453686,507.505198 416.445995,459.103515 L416.466737,458.091772 L416.534473,457.082116 Z" transform="translate(149.1034, 515.1592) rotate(-48) translate(-149.1034, -515.1592)"></path>
            </g>
        </g>
    </g>
</svg>